P2
3 3
65535
34143 34143 25305 34143 34143 26834 24323 26834 34143 
