P2
9 9
65535
34143 18594 13909 13909 34143 20280 13909 13909 13909 16499 34143 18594 13909 
17358 34143 24581 14284 13909 11235 18594 34143 18594 13909 15428 30876 30876 
15428 11235 13909 18594 34143 18594 13909 14284 24581 34143 34143 17358 13909 
18594 34143 18594 13909 13909 20280 18477 34143 15428 13909 18594 34143 18594 
13909 13909 11235 24581 30876 14284 13909 18594 34143 18594 13909 11235 14284 
30876 24581 13909 13909 18594 34143 18594 11235 13909 15428 34143 20280 13909 
13909 18594 34143 
