P2
5 5
65535
49087 37383 49087 40328 33091 35312 49087 39245 48116 48116 49087 39245 49087 
37614 40328 38998 48116 37614 49087 37383 29941 48116 40328 37383 49087 
